[Header]
FileType HTR
DataType HTRS
FileVersion 1
NumSegments 22
NumFrames 4
DataFrameRate 24
EulerRotationOrder ZYX
CalibrationUnits mm
RotationUnits Degrees
GlobalAxisofGravity Y
BoneLengthAxis Y
ScaleFactor 1.0
[SegmentNames&Hierarchy]
reference	GLOBAL
Hips	reference
Spine	Hips
Spine1	Spine
Neck	Spine1
Head	Neck
LeftShoulder	Spine1
LeftArm	LeftShoulder
LeftForeArm	LeftArm
LeftHand	LeftForeArm
RightShoulder	Spine1
RightArm	RightShoulder
RightForeArm	RightArm
RightHand	RightForeArm
LeftUpLeg	Hips
LeftLeg	LeftUpLeg
LeftFoot	LeftLeg
LeftToeBase	LeftFoot
RightUpLeg	Hips
RightLeg	RightUpLeg
RightFoot	RightLeg
RightToeBase	RightFoot
[BasePosition]
reference	0	0	0	0	0	0	1
Hips	0	0	0	0	0	0	1
Spine	0	0	0	0	-0	90	1
Spine1	0	0	0	0	0	0	1
Neck	0	0	0	-7.352327771	-7.352327771	90	1
Head	0	0	0	0	-0	90	1
LeftShoulder	0	0	0	0	0	0	1
LeftArm	0	0	0	0	0	0	1
LeftForeArm	0	0	0	0	0	0	1
LeftHand	0	0	0	0	0	0	1
RightShoulder	0	0	0	0	-0	180	1
RightArm	0	0	0	0	-0	180	1
RightForeArm	0	0	0	0	-0	180	1
RightHand	0	0	0	0	-0	180	1
LeftUpLeg	0	0	0	0	-0	-90	1
LeftLeg	0	0	0	0	-0	-90	1
LeftFoot	0	0	0	66.57146043	-66.57146043	-90	1
LeftToeBase	0	0	0	0	-90	0	1
RightUpLeg	0	0	0	0	-0	-90	1
RightLeg	0	0	0	0	-0	-90	1
RightFoot	0	0	0	66.57146043	-66.57146043	-90	1
RightToeBase	0	0	0	0	-90	0	1
[reference]
70	0	0	0	0	-0	0	1.0
71	0	0	0	0	-0	0	1.0
72	0	0	0	0	-0	0	1.0
73	0	0	0	0	-0	0	1.0
[Hips]
70	-3.472614765	8.537795067	-0.3217432499	359.9107666	-105.772049	-358.6994324	1.0
71	-3.786796331	8.553389549	-0.3615409732	361.1593018	-107.4930115	-359.4759827	1.0
72	-4.119349957	8.569084167	-0.3646999896	359.0315552	-109.1458435	-357.6765442	1.0
73	-4.462180138	8.555700302	-0.3646999896	355.9730225	-110.6511002	-355.3190918	1.0
[Spine]
70	0	0.7457100153	0	-8.815617561	-0.003953376785	-91.42856598	1.0
71	0	0.7457100153	0	-9.383459091	-0.2494666576	-91.94303894	1.0
72	0	0.7457100153	0	-9.457334518	-0.5328814387	-91.64465332	1.0
73	0	0.7457100153	0	-9.040961266	-0.7770814896	-90.96704865	1.0
[Spine1]
70	0	2.140589952	0	8.840309143	0.02707022056	0.1637272537	1.0
71	0	2.140589952	0	7.979726315	-0.04846202582	0.450065583	1.0
72	0	2.140589952	0	8.050866127	-0.1684203297	0.2163211554	1.0
73	0	2.140589952	0	7.828120708	-0.2884536982	0.8051096797	1.0
[Neck]
70	0	2.32246995	0	-11.86757851	5.341321945	-90.36356354	1.0
71	0	2.32246995	0	-11.04491806	5.685946941	-90.50292969	1.0
72	0	2.32246995	0	-11.21048927	6.232335567	-89.92171478	1.0
73	0	2.32246995	0	-10.99883556	6.686652184	-89.7516861	1.0
[Head]
70	0	1.409579992	0.1818799973	-2.645813465	-2.037140608	-90.39912415	1.0
71	0	1.409579992	0.1818799973	-2.753761768	-1.667053938	-90.46103668	1.0
72	0	1.409579992	0.1818799973	-2.260867596	-1.078886271	-90.83654022	1.0
73	0	1.409579992	0.1818799973	-2.374232054	-0.6041269898	-90.89722443	1.0
[LeftShoulder]
70	0.3668199778	1.946700096	-0.02662999928	-16.30307198	-13.84409904	-4.165620804	1.0
71	0.3668199778	1.946700096	-0.02662999928	-15.36823845	-14.20350266	-3.748305082	1.0
72	0.3668199778	1.946700096	-0.02662999928	-16.07656288	-12.61331844	-3.270073175	1.0
73	0.3668199778	1.946700096	-0.02662999928	-15.72062397	-13.97741508	-2.928325176	1.0
[LeftArm]
70	1.140689969	0	0	49.10975647	10.95584106	-75.54427338	1.0
71	1.140689969	0	0	49.88304138	8.633028984	-75.32831573	1.0
72	1.140689969	0	0	50.79476547	6.775521278	-74.72810364	1.0
73	1.140689969	0	0	48.96405029	5.406823635	-73.86170959	1.0
[LeftForeArm]
70	2.749800205	0	0	-14.45000458	-19.62293625	10.49478722	1.0
71	2.749800205	0	0	-13.71791649	-26.35089874	14.31909752	1.0
72	2.749800205	0	0	-12.23478031	-33.56645966	17.51649284	1.0
73	2.749800205	0	0	-13.50444603	-41.01849747	21.49843788	1.0
[LeftHand]
70	2.295179844	0	0	-12.95857048	-5.508234024	6.899628162	1.0
71	2.295179844	0	0	-10.85091877	-7.57955265	7.608047009	1.0
72	2.295179844	0	0	-7.484769821	-9.05122757	7.194702625	1.0
73	2.295179844	0	0	-6.209457397	-11.02184582	8.578671455	1.0
[RightShoulder]
70	-0.3601199985	1.946700096	-0.02662999928	-5.210680485	3.473283291	176.370285	1.0
71	-0.3601199985	1.946700096	-0.02662999928	-3.010221243	3.115733862	176.0313568	1.0
72	-0.3601199985	1.946700096	-0.02662999928	-1.872018337	2.664058208	175.8194885	1.0
73	-0.3601199985	1.946700096	-0.02662999928	-0.9590069652	2.201641798	175.1452179	1.0
[RightArm]
70	-1.140689969	0	0	40.7779007	-4.014167786	-102.5058517	1.0
71	-1.140689969	0	0	32.698349	-6.906152248	-105.774765	1.0
72	-1.140689969	0	0	26.00863838	-10.38604927	-109.4825439	1.0
73	-1.140689969	0	0	20.87127876	-13.64795685	-112.6631546	1.0
[RightForeArm]
70	-2.749800205	0	0	6.310760498	8.765431404	185.3062592	1.0
71	-2.749800205	0	0	9.301202774	6.75372076	188.1531982	1.0
72	-2.749800205	0	0	11.4492712	5.580566406	190.4483795	1.0
73	-2.749800205	0	0	13.14179802	4.590442657	191.931427	1.0
[RightHand]
70	-2.295179844	0	0	5.612796783	4.419909477	172.4948425	1.0
71	-2.295179844	0	0	8.645410538	3.344929218	174.0276794	1.0
72	-2.295179844	0	0	10.80311108	2.975447178	174.7941284	1.0
73	-2.295179844	0	0	12.56403065	2.42753768	175.3915863	1.0
[LeftUpLeg]
70	0.9094099998	0	0	-25.19730377	-2.770091057	98.57089996	1.0
71	0.9094099998	0	0	-21.57496643	-0.4998221993	97.42476654	1.0
72	0.9094099998	0	0	-17.2699585	-2.527458429	98.63156128	1.0
73	0.9094099998	0	0	-14.0155592	-5.565977573	99.88820648	1.0
[LeftLeg]
70	0	-4.498080254	0	38.7783432	-2.851401567	70.46578979	1.0
71	0	-4.498080254	0	20.29189301	-6.851758003	77.96889496	1.0
72	0	-4.498080254	0	4.058466434	-3.037804842	83.81324005	1.0
73	0	-4.498080254	0	-4.168292522	4.296251297	86.2282486	1.0
[LeftFoot]
70	0	-3.729400158	0	-47.22388458	113.0296249	1.916793823	1.0
71	0	-3.729400158	0	-56.01581573	107.3708191	-10.43865204	1.0
72	0	-3.729400158	0	-58.09775162	105.4800949	-20.32727814	1.0
73	0	-3.729400158	0	-43.8772583	102.536377	-13.17176819	1.0
[LeftToeBase]
70	0	-0.5911099911	1.364109993	0	0	0	1.0
71	0	-0.5911099911	1.364109993	0	0	0	1.0
72	0	-0.5911099911	1.364109993	0	0	0	1.0
73	0	-0.5911099911	1.364109993	0	0	0	1.0
[RightUpLeg]
70	-0.9094099998	0	0	-4.471259117	4.34930706	95.3195343	1.0
71	-0.9094099998	0	0	-0.6411264539	2.648806572	93.99790192	1.0
72	-0.9094099998	0	0	4.253921032	1.682071447	93.29798126	1.0
73	-0.9094099998	0	0	8.626610756	3.316298962	93.45064545	1.0
[RightLeg]
70	0	-4.498080254	0	20.13653946	1.490238547	87.31493378	1.0
71	0	-4.498080254	0	15.37024498	7.981210709	90.33521271	1.0
72	0	-4.498080254	0	10.42538261	6.925619602	90.51138306	1.0
73	0	-4.498080254	0	7.788527489	3.663313389	90.27091217	1.0
[RightFoot]
70	0	-3.729400158	0	32.69887543	69.50074005	75.34434509	1.0
71	0	-3.729400158	0	25.18792534	67.73718262	65.61395264	1.0
72	0	-3.729400158	0	33.26322937	69.1007843	74.60772705	1.0
73	0	-3.729400158	0	39.7162323	69.87263489	83.34012604	1.0
[RightToeBase]
70	0	-0.5911099911	1.364109993	0	0	0	1.0
71	0	-0.5911099911	1.364109993	0	0	0	1.0
72	0	-0.5911099911	1.364109993	0	0	0	1.0
73	0	-0.5911099911	1.364109993	0	0	0	1.0
[EndOfFile]
